<?xml version="1.0" standalone="no"?>
<!DOCTYPE svg PUBLIC "-//W3C//DTD SVG 20010904//EN"
 "http://www.w3.org/TR/2001/REC-SVG-20010904/DTD/svg10.dtd">
<svg version="1.0" xmlns="http://www.w3.org/2000/svg"
 width="700.000000pt" height="700.000000pt" viewBox="0 0 700.000000 700.000000"
 preserveAspectRatio="xMidYMid meet">
<metadata>
Created by potrace 1.14, written by Peter Selinger 2001-2017
</metadata>
<g transform="translate(0.000000,700.000000) scale(0.100000,-0.100000)"
fill="#000000" stroke="none">
<path d="M2505 6990 c-251 -25 -460 -70 -675 -145 -493 -172 -903 -461 -1230
-867 -401 -497 -620 -1155 -596 -1793 22 -569 209 -1100 550 -1560 160 -215
451 -485 686 -637 210 -135 434 -242 635 -304 152 -47 170 -52 230 -64 33 -6
74 -15 90 -20 17 -6 101 -19 188 -30 369 -47 778 -12 1137 97 226 68 485 187
668 307 97 63 98 63 106 24 3 -18 23 -66 43 -108 35 -73 62 -101 872 -911 556
-556 852 -846 885 -864 83 -48 175 -76 266 -82 110 -7 181 7 285 56 143 67
244 185 301 351 26 77 26 253 0 330 -50 148 -23 118 -920 1016 -815 815 -843
842 -916 877 -42 20 -90 40 -108 43 -39 8 -39 9 24 106 152 232 310 608 354
843 6 33 15 74 20 90 24 81 50 360 50 536 -1 610 -196 1178 -573 1667 -106
139 -354 387 -484 485 -374 283 -813 468 -1278 537 -156 23 -476 34 -610 20z
m485 -701 c892 -107 1625 -831 1751 -1729 17 -121 18 -458 1 -575 -88 -608
-454 -1153 -983 -1466 -220 -129 -489 -224 -744 -261 -115 -16 -464 -17 -578
0 -752 109 -1388 636 -1633 1353 -75 220 -107 421 -107 664 0 237 33 442 109
662 199 585 672 1058 1254 1257 173 59 325 89 555 110 59 6 277 -3 375 -15z"/>
<path d="M1630 4665 l-805 -293 -3 -109 -2 -108 757 -274 c417 -151 786 -285
821 -298 l62 -23 0 118 0 117 -651 230 c-358 126 -652 232 -654 235 -2 3 267
102 598 219 331 118 626 223 655 233 l52 19 0 115 c0 85 -3 114 -12 113 -7 -1
-375 -133 -818 -294z"/>
<path d="M3020 4846 l0 -114 43 -16 c23 -9 318 -114 656 -235 337 -120 610
-220 605 -223 -5 -3 -300 -108 -656 -234 l-648 -229 0 -117 0 -117 38 13 c20
8 366 133 767 279 402 145 754 273 783 283 l53 19 -3 108 -3 108 -810 294
c-445 162 -813 295 -817 295 -5 0 -8 -51 -8 -114z"/>
</g>
</svg>
